<svg xmlns="http://www.w3.org/2000/svg" version="1.1" xmlns:xlink="http://www.w3.org/1999/xlink" xmlns:svgjs="http://svgjs.com/svgjs" width="1440" height="560" preserveAspectRatio="none" viewBox="0 0 1440 560"><g mask="url(&quot;#SvgjsMask1001&quot;)" fill="none"><rect width="1440" height="560" x="0" y="0" fill="rgba(224, 169, 109, 1)"></rect><path d="M0,557.542C99.973,530.525,148.772,422.32,230.704,358.982C303.264,302.889,400.651,282.092,453.381,207.052C511.361,124.542,562.486,20.39,537.239,-77.243C512.159,-174.232,401.534,-216.499,326.648,-283.042C262.512,-340.032,208.488,-407.188,129.155,-439.861C43.926,-474.962,-53.161,-507.352,-139.477,-475.015C-224.752,-443.068,-250.586,-337.259,-315.417,-273.31C-387.891,-201.822,-528.265,-178.796,-542.036,-77.933C-555.833,23.123,-411.131,75.978,-376.189,171.8C-336.379,280.97,-408.813,426.692,-327.682,509.883C-249.026,590.537,-108.757,586.933,0,557.542" fill="#d48936"></path><path d="M1440 919.858C1524.873 939.5029999999999 1611.865 984.6669999999999 1693.674 954.7239999999999 1779.267 923.396 1847.774 845.952 1877.411 759.759 1906.19 676.062 1882.663 583.221 1849.65 501.101 1821.254 430.466 1761.712 381.125 1704.849 330.507 1654.703 285.868 1599.406 252.664 1538.597 224.211 1467.4 190.897 1397.485 138.96699999999998 1319.699 150.29199999999997 1239.307 161.997 1183.916 231.731 1122.41 284.806 1050.562 346.805 939.433 392.23900000000003 929.9 486.659 920.301 581.734 1014.7819999999999 653.633 1077.93 725.352 1126.399 780.4 1187.41 817.79 1252.022 852.5 1311.87 884.6510000000001 1373.813 904.538 1440 919.858" fill="#ecc9a4"></path></g><defs><mask id="SvgjsMask1001"><rect width="1440" height="560" fill="#ffffff"></rect></mask></defs></svg>